<?xml version="1.0" encoding="UTF-8" standalone="no"?>
<!-- Created with Inkscape (http://www.inkscape.org/) -->

<svg
   xmlns:dc="http://purl.org/dc/elements/1.1/"
   xmlns:cc="http://creativecommons.org/ns#"
   xmlns:rdf="http://www.w3.org/1999/02/22-rdf-syntax-ns#"
   xmlns:svg="http://www.w3.org/2000/svg"
   xmlns="http://www.w3.org/2000/svg"
   xmlns:sodipodi="http://sodipodi.sourceforge.net/DTD/sodipodi-0.dtd"
   xmlns:inkscape="http://www.inkscape.org/namespaces/inkscape"
   width="158.86775mm"
   height="35.286507mm"
   viewBox="0 0 158.86775 35.286507"
   version="1.1"
   id="svg442"
   inkscape:version="0.92.5 (2060ec1f9f, 2020-04-08)"
   sodipodi:docname="black.svg">
  <defs
     id="defs436">
    <clipPath
       clipPathUnits="userSpaceOnUse"
       id="clipPath32">
      <path
         d="M 0,595.276 H 841.89 V 0 H 0 Z"
         id="path30"
         inkscape:connector-curvature="0" />
    </clipPath>
    <clipPath
       clipPathUnits="userSpaceOnUse"
       id="clipPath140">
      <path
         d="M 0,595.276 H 841.89 V 0 H 0 Z"
         id="path138"
         inkscape:connector-curvature="0" />
    </clipPath>
  </defs>
  <sodipodi:namedview
     id="base"
     pagecolor="#ffffff"
     bordercolor="#666666"
     borderopacity="1.0"
     inkscape:pageopacity="0.0"
     inkscape:pageshadow="2"
     inkscape:zoom="1.4"
     inkscape:cx="306.7732"
     inkscape:cy="-2.9069685"
     inkscape:document-units="mm"
     inkscape:current-layer="layer1"
     showgrid="false"
     fit-margin-top="0"
     fit-margin-left="0"
     fit-margin-right="0"
     fit-margin-bottom="0"
     inkscape:window-width="1680"
     inkscape:window-height="1013"
     inkscape:window-x="0"
     inkscape:window-y="30"
     inkscape:window-maximized="1" />
  <metadata
     id="metadata439">
    <rdf:RDF>
      <cc:Work
         rdf:about="">
        <dc:format>image/svg+xml</dc:format>
        <dc:type
           rdf:resource="http://purl.org/dc/dcmitype/StillImage" />
        <dc:title></dc:title>
      </cc:Work>
    </rdf:RDF>
  </metadata>
  <g
     inkscape:label="Layer 1"
     inkscape:groupmode="layer"
     id="layer1"
     transform="translate(-3.4276264,-4.2575057)">
    <text
       y="38.074093"
       x="30.34724"
       transform="scale(0.97161891,1.0292101)"
       style="font-style:italic;font-variant:normal;font-weight:500;font-stretch:normal;font-size:22.96529007px;font-family:'Helvetica 65 Medium';-inkscape-font-specification:HelveticaNeue-MediumItalic;writing-mode:lr-tb;fill:#000000;fill-opacity:1;fill-rule:nonzero;stroke:none;stroke-width:0.34276554"
       id="text124">
      <tspan
         style="stroke-width:0.34276554"
         x="30.34724"
         y="38.074093"
         id="tspan122">R</tspan>
    </text>
    <text
       y="38.074093"
       x="46.285152"
       transform="scale(0.97161891,1.0292101)"
       style="font-variant:normal;font-weight:normal;font-stretch:normal;font-size:22.96529007px;font-family:'Helvetica Neue LT Com';-inkscape-font-specification:HelveticaNeue;writing-mode:lr-tb;fill:#000000;fill-opacity:1;fill-rule:nonzero;stroke:none;stroke-width:0.34276554"
       id="text128">
      <tspan
         style="stroke-width:0.34276554"
         x="46.285152 58.571583 70.05423 82.822929 90.745949 98.531181 111.20802 123.97672"
         y="38.074093"
         sodipodi:role="line"
         id="tspan126">esurrect</tspan>
    </text>
    <text
       y="38.074093"
       x="138.07742"
       transform="scale(0.97161891,1.0292101)"
       style="font-variant:normal;font-weight:300;font-stretch:normal;font-size:22.96529007px;font-family:'Helvetica 45 Light';-inkscape-font-specification:HelveticaNeue-Light;writing-mode:lr-tb;fill:#000000;fill-opacity:1;fill-rule:nonzero;stroke:none;stroke-width:0.34276554"
       id="text132">
      <tspan
         style="stroke-width:0.34276554"
         x="138.07742 151.02986 155.04878"
         y="38.074093"
         sodipodi:role="line"
         id="tspan130">bio</tspan>
    </text>
    <g
       transform="matrix(0.35277777,0,0,-0.35277777,-64.38927,134.61503)"
       id="g134">
      <g
         id="g136"
         clip-path="url(#clipPath140)">
        <g
           id="g142"
           transform="translate(241.3584,305.8439)">
          <path
             d="M 0,0 C 0,0 6.188,4.232 0.812,15.577 -5.366,28.611 -23.523,11.789 -23.523,11.789 -36.638,-1.007 -47.496,-6.606 -48.307,-6.732 c 0.884,-1.459 10.552,-6.638 27.97,-19.724 0,0 15.685,-8.966 21.929,5.977 C 7.837,-5.538 0.115,-5.305 0.115,-5.305 -3.396,-2.184 0,0 0,0"
             style="fill:#000000;fill-opacity:1;fill-rule:nonzero;stroke:none"
             id="path144"
             inkscape:connector-curvature="0" />
        </g>
        <g
           id="g146"
           transform="translate(241.3584,305.8439)">
          <path
             d="M 0,0 C 0,0 6.188,4.232 0.812,15.577 -5.366,28.611 -23.523,11.789 -23.523,11.789 -36.638,-1.007 -47.496,-6.606 -48.307,-6.732 c 0.884,-1.459 10.552,-6.638 27.97,-19.724 0,0 15.685,-8.966 21.929,5.977 C 7.837,-5.538 0.115,-5.305 0.115,-5.305 -3.396,-2.184 0,0 0,0 Z"
             style="fill:none;stroke:#ffffff;stroke-width:1;stroke-linecap:butt;stroke-linejoin:miter;stroke-miterlimit:10;stroke-dasharray:none;stroke-opacity:1"
             id="path148"
             inkscape:connector-curvature="0" />
        </g>
        <g
           id="g150"
           transform="translate(224.4346,303.1501)">
          <path
             d="m 0,0 -0.004,0.001 c 0,0 -0.005,0.007 -0.006,0.007 -0.004,0.004 -0.007,0.006 -0.011,0.01 -1.14,-0.292 -1.015,-0.976 -0.957,-1.158 0.073,-0.157 0.2,-0.256 0.314,-0.311 l 0.001,0.003 c 0.031,-0.022 0.062,-0.03 0.094,-0.045 0.064,-0.022 0.109,-0.031 0.109,-0.031 0,0 0.002,-0.015 0.003,-0.018 0.318,-0.085 0.621,0.101 0.775,0.222 C 0.684,-0.713 0.237,-0.208 0,0"
             style="fill:#000000;fill-opacity:1;fill-rule:nonzero;stroke:none"
             id="path152"
             inkscape:connector-curvature="0" />
        </g>
        <g
           id="g154"
           transform="translate(224.4346,303.1501)">
          <path
             d="m 0,0 -0.004,0.001 c 0,0 -0.005,0.007 -0.006,0.007 -0.004,0.004 -0.007,0.006 -0.011,0.01 -1.14,-0.292 -1.015,-0.976 -0.957,-1.158 0.073,-0.157 0.2,-0.256 0.314,-0.311 l 0.001,0.003 c 0.031,-0.022 0.062,-0.03 0.094,-0.045 0.064,-0.022 0.109,-0.031 0.109,-0.031 0,0 0.002,-0.015 0.003,-0.018 0.318,-0.085 0.621,0.101 0.775,0.222 C 0.684,-0.713 0.237,-0.208 0,0 Z"
             style="fill:none;stroke:#ffffff;stroke-width:1;stroke-linecap:butt;stroke-linejoin:miter;stroke-miterlimit:10;stroke-dasharray:none;stroke-opacity:1"
             id="path156"
             inkscape:connector-curvature="0" />
        </g>
        <g
           id="g158"
           transform="translate(236.5977,307.8244)">
          <path
             d="m 0,0 c -1.234,4.26 -6.564,3.146 -6.768,-0.351 0.652,-3.142 2.301,-0.943 2.301,-0.943 0.185,0.259 1.174,0.376 1.155,-0.421 -0.039,-1.594 -4.749,-2.317 -4.749,-2.317 -2.528,-0.869 -2.895,-2.692 -2.895,-2.692 0,0 0.197,-0.205 -0.1,-0.859 l 0.709,-0.802 c 3.628,-2.334 6.344,0.134 6.344,0.134 1.744,1.161 3.392,3.369 3.392,3.369 C 1.092,-2.467 0,0 0,0"
             style="fill:#ffffff;fill-opacity:1;fill-rule:nonzero;stroke:#000000;stroke-width:1.13999999;stroke-linecap:butt;stroke-linejoin:miter;stroke-miterlimit:10;stroke-dasharray:none;stroke-opacity:1"
             id="path160"
             inkscape:connector-curvature="0" />
        </g>
        <g
           id="g162"
           transform="translate(237.5093,293.8312)">
          <path
             d="M 0,0 C 3.059,3.259 -0.698,7.13 -3.844,5.471 -6.236,3.283 -3.461,3.055 -3.461,3.055 -3.14,3.037 -2.521,2.271 -3.224,1.87 -4.629,1.069 -7.721,4.626 -7.721,4.626 c -1.778,2.136 -4.148,2.836 -4.148,2.836 0,0 0.136,-1.367 -0.931,-1.512 l 0.098,-1.69 c -0.131,-4.252 3.434,-5.231 3.434,-5.231 1.922,-0.849 4.704,-1.071 4.704,-1.071 C -1.574,-2.202 0,0 0,0"
             style="fill:#ffffff;fill-opacity:1;fill-rule:nonzero;stroke:#000000;stroke-width:1.13999999;stroke-linecap:butt;stroke-linejoin:miter;stroke-miterlimit:10;stroke-dasharray:none;stroke-opacity:1"
             id="path164"
             inkscape:connector-curvature="0" />
        </g>
        <g
           id="g166"
           transform="translate(223.0645,286.7316)">
          <path
             d="M 0,0 C 4.225,-1.568 6.49,3.29 3.748,5.535 0.786,6.896 1.604,4.287 1.604,4.287 1.705,3.987 1.211,3.14 0.57,3.63 c -1.282,0.98 0.934,5.117 0.934,5.117 1.207,2.957 0.331,4.286 0.331,4.286 0,0 -0.9,0.073 -0.969,0.828 L -0.698,13.142 C -4.772,11.678 -4.37,8.07 -4.37,8.07 -4.459,6.005 -3.633,3.392 -3.633,3.392 -2.671,0.612 0,0 0,0"
             style="fill:#ffffff;fill-opacity:1;fill-rule:nonzero;stroke:#000000;stroke-width:1.13999999;stroke-linecap:butt;stroke-linejoin:miter;stroke-miterlimit:10;stroke-dasharray:none;stroke-opacity:1"
             id="path168"
             inkscape:connector-curvature="0" />
        </g>
        <g
           id="g170"
           transform="translate(211.0029,297.1096)">
          <path
             d="M 0,0 C 0.108,-4.428 5.553,-4.656 6.642,-1.32 6.812,1.882 4.655,0.157 4.655,0.157 4.411,-0.048 3.423,0.082 3.645,0.849 c 0.444,1.532 5.188,1.078 5.188,1.078 3.272,0.011 4.175,1.312 4.175,1.312 0,0 -0.437,0.824 0.418,1.192 l -1.268,1.15 C 9.24,8.73 5.981,7.006 5.981,7.006 3.996,6.31 1.838,4.576 1.838,4.576 -0.427,2.656 0,0 0,0"
             style="fill:#ffffff;fill-opacity:1;fill-rule:nonzero;stroke:#000000;stroke-width:1.13999999;stroke-linecap:butt;stroke-linejoin:miter;stroke-miterlimit:10;stroke-dasharray:none;stroke-opacity:1"
             id="path172"
             inkscape:connector-curvature="0" />
        </g>
        <g
           id="g174"
           transform="translate(218.1172,312.7746)">
          <path
             d="m 0,0 c -4.358,-1.168 -3.274,-6.403 0.291,-6.637 3.212,0.608 0.985,2.246 0.985,2.246 -0.262,0.183 -0.372,1.154 0.441,1.127 1.625,-0.053 2.316,-4.676 2.316,-4.676 0.904,-2.989 1.791,-3.768 1.791,-3.768 0,0 0.488,1.08 1.794,0 l 0.834,1.483 c 2.416,3.534 -0.075,6.22 -0.075,6.22 C 7.209,-2.283 4.974,-0.647 4.974,-0.647 2.527,1.046 0,0 0,0"
             style="fill:#ffffff;fill-opacity:1;fill-rule:nonzero;stroke:#000000;stroke-width:1.13999999;stroke-linecap:butt;stroke-linejoin:miter;stroke-miterlimit:10;stroke-dasharray:none;stroke-opacity:1"
             id="path176"
             inkscape:connector-curvature="0" />
        </g>
        <g
           id="g178"
           transform="translate(248.2227,323.9924)">
          <path
             d="m 0,0 -1.179,-0.984 c 0,0 2.714,-9.619 -12.065,-7.579 -14.346,1.98 -13.454,20.215 -13.454,20.215 -0.864,11.527 1.281,33.2 0.832,33.873 0.422,-0.688 17.19,-11.283 29.692,-17.943 0,0 19.803,-9.736 12.395,-22.097 C 10.694,-3.737 3.195,1.299 3.195,1.299 L 0.733,0.612"
             style="fill:#020202;fill-opacity:1;fill-rule:nonzero;stroke:none"
             id="path180"
             inkscape:connector-curvature="0" />
        </g>
        <g
           id="g182"
           transform="translate(249.3862,327.092)">
          <path
             d="M 0,0 C 0,0 7.403,9.811 6.674,20.594 6.674,20.594 -0.098,15.475 0,0"
             style="fill:#ffffff;fill-opacity:1;fill-rule:nonzero;stroke:none"
             id="path184"
             inkscape:connector-curvature="0" />
        </g>
        <g
           id="g186"
           transform="translate(249.3862,327.092)">
          <path
             d="M 0,0 C 0,0 7.403,9.811 6.674,20.594 6.674,20.594 -0.098,15.475 0,0 Z"
             style="fill:none;stroke:#020202;stroke-width:0.79500002;stroke-linecap:butt;stroke-linejoin:miter;stroke-miterlimit:10;stroke-dasharray:none;stroke-opacity:1"
             id="path188"
             inkscape:connector-curvature="0" />
        </g>
        <g
           id="g190"
           transform="translate(222.8066,334.4489)">
          <path
             d="M 0,0 C 0,0 12.804,-1.216 21.561,-8.581 21.561,-8.581 13.136,-9.924 0,0"
             style="fill:#ffffff;fill-opacity:1;fill-rule:nonzero;stroke:none"
             id="path192"
             inkscape:connector-curvature="0" />
        </g>
        <g
           id="g194"
           transform="translate(222.8066,334.4489)">
          <path
             d="M 0,0 C 0,0 12.804,-1.216 21.561,-8.581 21.561,-8.581 13.136,-9.924 0,0 Z"
             style="fill:none;stroke:#020202;stroke-width:0.77899998;stroke-linecap:butt;stroke-linejoin:miter;stroke-miterlimit:10;stroke-dasharray:none;stroke-opacity:1"
             id="path196"
             inkscape:connector-curvature="0" />
        </g>
        <g
           id="g198"
           transform="translate(244.4746,338.3591)">
          <path
             d="M 0,0 C 0,0 2.285,9.398 1.93,15.101 1.93,15.101 -5.856,3.2 0,0"
             style="fill:#ffffff;fill-opacity:1;fill-rule:nonzero;stroke:none"
             id="path200"
             inkscape:connector-curvature="0" />
        </g>
        <g
           id="g202"
           transform="translate(244.4746,338.3591)">
          <path
             d="M 0,0 C 0,0 2.285,9.398 1.93,15.101 1.93,15.101 -5.856,3.2 0,0 Z"
             style="fill:none;stroke:#020202;stroke-width:0.75;stroke-linecap:butt;stroke-linejoin:miter;stroke-miterlimit:10;stroke-dasharray:none;stroke-opacity:1"
             id="path204"
             inkscape:connector-curvature="0" />
        </g>
        <g
           id="g206"
           transform="translate(238.2319,335.3713)">
          <path
             d="M 0,0 C 0,0 -9.682,4.018 -14.507,7.711 -14.507,7.711 0.702,6.148 0,0"
             style="fill:#ffffff;fill-opacity:1;fill-rule:nonzero;stroke:none"
             id="path208"
             inkscape:connector-curvature="0" />
        </g>
        <g
           id="g210"
           transform="translate(238.2319,335.3713)">
          <path
             d="M 0,0 C 0,0 -9.682,4.018 -14.507,7.711 -14.507,7.711 0.702,6.148 0,0 Z"
             style="fill:none;stroke:#020202;stroke-width:0.75;stroke-linecap:butt;stroke-linejoin:miter;stroke-miterlimit:10;stroke-dasharray:none;stroke-opacity:1"
             id="path212"
             inkscape:connector-curvature="0" />
        </g>
        <g
           id="g214"
           transform="translate(236.918,358.8713)">
          <path
             d="M 0,0 C 0,0 1.562,-1.685 0.781,-6.74 0,-11.794 0,-9.829 0,-9.829 c 0,0 -2.813,0.843 0,9.829"
             style="fill:#ffffff;fill-opacity:1;fill-rule:nonzero;stroke:none"
             id="path216"
             inkscape:connector-curvature="0" />
        </g>
        <g
           id="g218"
           transform="translate(236.918,358.8713)">
          <path
             d="M 0,0 C 0,0 1.562,-1.685 0.781,-6.74 0,-11.794 0,-9.829 0,-9.829 c 0,0 -2.813,0.843 0,9.829 z"
             style="fill:none;stroke:#020202;stroke-width:0.75;stroke-linecap:butt;stroke-linejoin:miter;stroke-miterlimit:10;stroke-dasharray:none;stroke-opacity:1"
             id="path220"
             inkscape:connector-curvature="0" />
        </g>
        <g
           id="g222"
           transform="translate(223.0923,352.7214)">
          <path
             d="M 0,0 C 0,0 0.576,-2.135 5.545,-4.565 10.516,-6.996 8.763,-5.83 8.763,-5.83 8.763,-5.83 9.68,-3.286 0,0"
             style="fill:#ffffff;fill-opacity:1;fill-rule:nonzero;stroke:none"
             id="path224"
             inkscape:connector-curvature="0" />
        </g>
        <g
           id="g226"
           transform="translate(223.0923,352.7214)">
          <path
             d="M 0,0 C 0,0 0.576,-2.135 5.545,-4.565 10.516,-6.996 8.763,-5.83 8.763,-5.83 8.763,-5.83 9.68,-3.286 0,0 Z"
             style="fill:none;stroke:#020202;stroke-width:0.75;stroke-linecap:butt;stroke-linejoin:miter;stroke-miterlimit:10;stroke-dasharray:none;stroke-opacity:1"
             id="path228"
             inkscape:connector-curvature="0" />
        </g>
        <g
           id="g230"
           transform="translate(224.959,363.9753)">
          <path
             d="M 0,0 23.667,-39.776 C 23.667,-39.776 2.066,-1.042 0,0"
             style="fill:#636363;fill-opacity:1;fill-rule:nonzero;stroke:none"
             id="path232"
             inkscape:connector-curvature="0" />
        </g>
        <g
           id="g234"
           transform="translate(224.959,363.9753)">
          <path
             d="M 0,0 23.667,-39.776 C 23.667,-39.776 2.066,-1.042 0,0 Z"
             style="fill:none;stroke:#ffffff;stroke-width:0.5;stroke-linecap:butt;stroke-linejoin:miter;stroke-miterlimit:10;stroke-dasharray:none;stroke-opacity:1"
             id="path236"
             inkscape:connector-curvature="0" />
        </g>
      </g>
    </g>
  </g>
</svg>
