<?xml version="1.0" encoding="UTF-8" standalone="no"?>
<!-- Created with Inkscape (http://www.inkscape.org/) -->

<svg
   xmlns:dc="http://purl.org/dc/elements/1.1/"
   xmlns:cc="http://creativecommons.org/ns#"
   xmlns:rdf="http://www.w3.org/1999/02/22-rdf-syntax-ns#"
   xmlns:svg="http://www.w3.org/2000/svg"
   xmlns="http://www.w3.org/2000/svg"
   xmlns:sodipodi="http://sodipodi.sourceforge.net/DTD/sodipodi-0.dtd"
   xmlns:inkscape="http://www.inkscape.org/namespaces/inkscape"
   width="158.58058mm"
   height="35.286648mm"
   viewBox="0 0 158.58058 35.286648"
   version="1.1"
   id="svg442"
   inkscape:version="0.92.5 (2060ec1f9f, 2020-04-08)"
   sodipodi:docname="colour.svg">
  <defs
     id="defs436">
    <clipPath
       clipPathUnits="userSpaceOnUse"
       id="clipPath32">
      <path
         d="M 0,595.276 H 841.89 V 0 H 0 Z"
         id="path30"
         inkscape:connector-curvature="0" />
    </clipPath>
  </defs>
  <sodipodi:namedview
     id="base"
     pagecolor="#ffffff"
     bordercolor="#666666"
     borderopacity="1.0"
     inkscape:pageopacity="0.0"
     inkscape:pageshadow="2"
     inkscape:zoom="1.4"
     inkscape:cx="305.12214"
     inkscape:cy="-0.30440635"
     inkscape:document-units="mm"
     inkscape:current-layer="layer1"
     showgrid="false"
     fit-margin-top="0"
     fit-margin-left="0"
     fit-margin-right="0"
     fit-margin-bottom="0"
     inkscape:window-width="1680"
     inkscape:window-height="1013"
     inkscape:window-x="0"
     inkscape:window-y="30"
     inkscape:window-maximized="1" />
  <metadata
     id="metadata439">
    <rdf:RDF>
      <cc:Work
         rdf:about="">
        <dc:format>image/svg+xml</dc:format>
        <dc:type
           rdf:resource="http://purl.org/dc/dcmitype/StillImage" />
        <dc:title></dc:title>
      </cc:Work>
    </rdf:RDF>
  </metadata>
  <g
     inkscape:label="Layer 1"
     inkscape:groupmode="layer"
     id="layer1"
     transform="translate(-3.8644712,-4.9459627)">
    <text
       y="38.743145"
       x="30.501289"
       transform="scale(0.97161891,1.0292101)"
       style="font-style:italic;font-variant:normal;font-weight:500;font-stretch:normal;font-size:22.96529007px;font-family:'Helvetica 65 Medium';-inkscape-font-specification:HelveticaNeue-MediumItalic;writing-mode:lr-tb;fill:#337a6b;fill-opacity:1;fill-rule:nonzero;stroke:none;stroke-width:0.34276554"
       id="text16">
      <tspan
         style="stroke-width:0.34276554"
         x="30.501289"
         y="38.743145"
         id="tspan14">R</tspan>
    </text>
    <text
       y="38.743145"
       x="46.439201"
       transform="scale(0.97161891,1.0292101)"
       style="font-variant:normal;font-weight:normal;font-stretch:normal;font-size:22.96529007px;font-family:'Helvetica Neue LT Com';-inkscape-font-specification:HelveticaNeue;writing-mode:lr-tb;fill:#000000;fill-opacity:1;fill-rule:nonzero;stroke:none;stroke-width:0.34276554"
       id="text20">
      <tspan
         style="stroke-width:0.34276554"
         x="46.439201 58.725632 70.208275 82.976982 90.900002 98.685234 111.36208 124.13078"
         y="38.743145"
         sodipodi:role="line"
         id="tspan18">esurrect</tspan>
    </text>
    <text
       y="38.743145"
       x="138.23148"
       transform="scale(0.97161891,1.0292101)"
       style="font-variant:normal;font-weight:300;font-stretch:normal;font-size:22.96529007px;font-family:'Helvetica 45 Light';-inkscape-font-specification:HelveticaNeue-Light;writing-mode:lr-tb;fill:#337a6b;fill-opacity:1;fill-rule:nonzero;stroke:none;stroke-width:0.34276554"
       id="text24">
      <tspan
         style="stroke-width:0.34276554"
         x="138.23148 151.1839 155.20284"
         y="38.743145"
         sodipodi:role="line"
         id="tspan22">bio</tspan>
    </text>
    <g
       transform="matrix(0.35277777,0,0,-0.35277777,-65.6633,189.75717)"
       id="g26">
      <g
         id="g28"
         clip-path="url(#clipPath32)">
        <g
           id="g34"
           transform="translate(245.3936,460.2004)">
          <path
             d="M 0,0 C 0,0 6.188,4.232 0.812,15.577 -5.366,28.612 -23.522,11.789 -23.522,11.789 -36.638,-1.007 -47.496,-6.606 -48.307,-6.732 c 0.884,-1.458 10.553,-6.638 27.971,-19.724 0,0 15.684,-8.965 21.929,5.977 C 7.838,-5.538 0.115,-5.304 0.115,-5.304 -3.396,-2.184 0,0 0,0"
             style="fill:#1e461f;fill-opacity:1;fill-rule:nonzero;stroke:none"
             id="path36"
             inkscape:connector-curvature="0" />
        </g>
        <g
           id="g38"
           transform="translate(228.4702,457.507)">
          <path
             d="m 0,0 c 0,0 -0.004,0 -0.004,0 0,0 -0.005,0.007 -0.006,0.008 -0.004,0.004 -0.007,0.006 -0.011,0.01 -1.14,-0.293 -1.015,-0.976 -0.957,-1.159 0.073,-0.157 0.2,-0.255 0.314,-0.311 l 0.001,0.003 c 0.031,-0.021 0.062,-0.029 0.094,-0.044 0.063,-0.023 0.109,-0.031 0.109,-0.031 0,0 0.002,-0.015 0.003,-0.019 0.318,-0.084 0.62,0.101 0.775,0.222 C 0.683,-0.713 0.237,-0.208 0,0"
             style="fill:#1e461f;fill-opacity:1;fill-rule:nonzero;stroke:none"
             id="path40"
             inkscape:connector-curvature="0" />
        </g>
        <g
           id="g42"
           transform="translate(240.6333,462.1808)">
          <path
             d="m 0,0 c -1.234,4.26 -6.564,3.146 -6.768,-0.351 0.652,-3.142 2.301,-0.943 2.301,-0.943 0.185,0.259 1.174,0.376 1.154,-0.421 -0.038,-1.594 -4.748,-2.317 -4.748,-2.317 -2.529,-0.869 -2.895,-2.692 -2.895,-2.692 0,0 0.197,-0.205 -0.1,-0.859 l 0.709,-0.802 c 3.628,-2.334 6.344,0.135 6.344,0.135 1.744,1.161 3.391,3.369 3.391,3.369 C 1.092,-2.467 0,0 0,0"
             style="fill:#ffffff;fill-opacity:1;fill-rule:nonzero;stroke:#1e461f;stroke-width:1.13999999;stroke-linecap:butt;stroke-linejoin:miter;stroke-miterlimit:10;stroke-dasharray:none;stroke-opacity:1"
             id="path44"
             inkscape:connector-curvature="0" />
        </g>
        <g
           id="g46"
           transform="translate(241.5449,448.1877)">
          <path
             d="M 0,0 C 3.059,3.259 -0.698,7.13 -3.844,5.471 -6.236,3.283 -3.461,3.056 -3.461,3.056 -3.14,3.037 -2.521,2.271 -3.224,1.871 -4.629,1.07 -7.721,4.626 -7.721,4.626 c -1.778,2.136 -4.148,2.837 -4.148,2.837 0,0 0.136,-1.368 -0.931,-1.512 l 0.098,-1.691 c -0.132,-4.252 3.434,-5.23 3.434,-5.23 1.922,-0.851 4.704,-1.072 4.704,-1.072 C -1.574,-2.202 0,0 0,0"
             style="fill:#ffffff;fill-opacity:1;fill-rule:nonzero;stroke:#1e461f;stroke-width:1.13999999;stroke-linecap:butt;stroke-linejoin:miter;stroke-miterlimit:10;stroke-dasharray:none;stroke-opacity:1"
             id="path48"
             inkscape:connector-curvature="0" />
        </g>
        <g
           id="g50"
           transform="translate(227.0996,441.0886)">
          <path
             d="M 0,0 C 4.225,-1.569 6.491,3.29 3.748,5.535 0.786,6.896 1.604,4.287 1.604,4.287 1.706,3.987 1.211,3.139 0.57,3.629 -0.711,4.61 1.504,8.747 1.504,8.747 c 1.207,2.957 0.332,4.286 0.332,4.286 0,0 -0.9,0.073 -0.969,0.828 L -0.698,13.142 C -4.772,11.678 -4.37,8.07 -4.37,8.07 -4.459,6.004 -3.633,3.392 -3.633,3.392 -2.671,0.612 0,0 0,0"
             style="fill:#ffffff;fill-opacity:1;fill-rule:nonzero;stroke:#1e461f;stroke-width:1.13999999;stroke-linecap:butt;stroke-linejoin:miter;stroke-miterlimit:10;stroke-dasharray:none;stroke-opacity:1"
             id="path52"
             inkscape:connector-curvature="0" />
        </g>
        <g
           id="g54"
           transform="translate(215.0386,451.466)">
          <path
             d="M 0,0 C 0.108,-4.427 5.553,-4.656 6.642,-1.32 6.812,1.882 4.655,0.158 4.655,0.158 4.41,-0.048 3.422,0.082 3.645,0.849 c 0.444,1.533 5.188,1.078 5.188,1.078 3.272,0.012 4.175,1.312 4.175,1.312 0,0 -0.437,0.824 0.418,1.193 l -1.268,1.15 C 9.24,8.73 5.981,7.007 5.981,7.007 3.996,6.311 1.837,4.576 1.837,4.576 -0.428,2.656 0,0 0,0"
             style="fill:#ffffff;fill-opacity:1;fill-rule:nonzero;stroke:#1e461f;stroke-width:1.13999999;stroke-linecap:butt;stroke-linejoin:miter;stroke-miterlimit:10;stroke-dasharray:none;stroke-opacity:1"
             id="path56"
             inkscape:connector-curvature="0" />
        </g>
        <g
           id="g58"
           transform="translate(222.1528,467.1315)">
          <path
             d="m 0,0 c -4.358,-1.168 -3.274,-6.404 0.291,-6.637 3.212,0.608 0.985,2.246 0.985,2.246 -0.262,0.183 -0.372,1.154 0.441,1.127 1.625,-0.053 2.316,-4.677 2.316,-4.677 0.904,-2.988 1.791,-3.767 1.791,-3.767 0,0 0.488,1.08 1.794,0 l 0.834,1.483 c 2.416,3.534 -0.075,6.22 -0.075,6.22 C 7.209,-2.284 4.973,-0.647 4.973,-0.647 2.527,1.046 0,0 0,0"
             style="fill:#ffffff;fill-opacity:1;fill-rule:nonzero;stroke:#1e461f;stroke-width:1.13999999;stroke-linecap:butt;stroke-linejoin:miter;stroke-miterlimit:10;stroke-dasharray:none;stroke-opacity:1"
             id="path60"
             inkscape:connector-curvature="0" />
        </g>
        <g
           id="g62"
           transform="translate(252.2583,478.3493)">
          <path
             d="m 0,0 -1.179,-0.984 c 0,0 2.714,-9.619 -12.065,-7.579 -14.347,1.98 -13.454,20.215 -13.454,20.215 -0.864,11.526 1.281,33.199 0.832,33.873 0.422,-0.688 17.19,-11.284 29.692,-17.943 0,0 19.803,-9.737 12.395,-22.098 C 10.693,-3.737 3.195,1.298 3.195,1.298 L 0.732,0.611"
             style="fill:#337a6b;fill-opacity:1;fill-rule:nonzero;stroke:none"
             id="path64"
             inkscape:connector-curvature="0" />
        </g>
        <g
           id="g66"
           transform="translate(253.4219,481.4484)">
          <path
             d="M 0,0 C 0,0 7.403,9.811 6.674,20.594 6.674,20.594 -0.098,15.475 0,0"
             style="fill:#ffffff;fill-opacity:1;fill-rule:nonzero;stroke:none"
             id="path68"
             inkscape:connector-curvature="0" />
        </g>
        <g
           id="g70"
           transform="translate(253.4219,481.4484)">
          <path
             d="M 0,0 C 0,0 7.403,9.811 6.674,20.594 6.674,20.594 -0.098,15.475 0,0 Z"
             style="fill:none;stroke:#337a6b;stroke-width:0.79500002;stroke-linecap:butt;stroke-linejoin:miter;stroke-miterlimit:10;stroke-dasharray:none;stroke-opacity:1"
             id="path72"
             inkscape:connector-curvature="0" />
        </g>
        <g
           id="g74"
           transform="translate(226.8423,488.8054)">
          <path
             d="M 0,0 C 0,0 12.804,-1.216 21.561,-8.581 21.561,-8.581 13.136,-9.924 0,0"
             style="fill:#ffffff;fill-opacity:1;fill-rule:nonzero;stroke:none"
             id="path76"
             inkscape:connector-curvature="0" />
        </g>
        <g
           id="g78"
           transform="translate(226.8423,488.8054)">
          <path
             d="M 0,0 C 0,0 12.804,-1.216 21.561,-8.581 21.561,-8.581 13.136,-9.924 0,0 Z"
             style="fill:none;stroke:#337a6b;stroke-width:0.77899998;stroke-linecap:butt;stroke-linejoin:miter;stroke-miterlimit:10;stroke-dasharray:none;stroke-opacity:1"
             id="path80"
             inkscape:connector-curvature="0" />
        </g>
        <g
           id="g82"
           transform="translate(248.5103,492.716)">
          <path
             d="M 0,0 C 0,0 2.285,9.397 1.93,15.101 1.93,15.101 -5.856,3.2 0,0"
             style="fill:#ffffff;fill-opacity:1;fill-rule:nonzero;stroke:none"
             id="path84"
             inkscape:connector-curvature="0" />
        </g>
        <g
           id="g86"
           transform="translate(248.5103,492.716)">
          <path
             d="M 0,0 C 0,0 2.285,9.397 1.93,15.101 1.93,15.101 -5.856,3.2 0,0 Z"
             style="fill:none;stroke:#337a6b;stroke-width:0.75;stroke-linecap:butt;stroke-linejoin:miter;stroke-miterlimit:10;stroke-dasharray:none;stroke-opacity:1"
             id="path88"
             inkscape:connector-curvature="0" />
        </g>
        <g
           id="g90"
           transform="translate(242.2676,489.7282)">
          <path
             d="M 0,0 C 0,0 -9.682,4.018 -14.507,7.711 -14.507,7.711 0.702,6.148 0,0"
             style="fill:#ffffff;fill-opacity:1;fill-rule:nonzero;stroke:none"
             id="path92"
             inkscape:connector-curvature="0" />
        </g>
        <g
           id="g94"
           transform="translate(242.2676,489.7282)">
          <path
             d="M 0,0 C 0,0 -9.682,4.018 -14.507,7.711 -14.507,7.711 0.702,6.148 0,0 Z"
             style="fill:none;stroke:#337a6b;stroke-width:0.75;stroke-linecap:butt;stroke-linejoin:miter;stroke-miterlimit:10;stroke-dasharray:none;stroke-opacity:1"
             id="path96"
             inkscape:connector-curvature="0" />
        </g>
        <g
           id="g98"
           transform="translate(240.9536,513.2277)">
          <path
             d="M 0,0 C 0,0 1.562,-1.685 0.781,-6.739 0,-11.794 0,-9.828 0,-9.828 c 0,0 -2.813,0.842 0,9.828"
             style="fill:#ffffff;fill-opacity:1;fill-rule:nonzero;stroke:none"
             id="path100"
             inkscape:connector-curvature="0" />
        </g>
        <g
           id="g102"
           transform="translate(240.9536,513.2277)">
          <path
             d="M 0,0 C 0,0 1.562,-1.685 0.781,-6.739 0,-11.794 0,-9.828 0,-9.828 c 0,0 -2.813,0.842 0,9.828 z"
             style="fill:none;stroke:#337a6b;stroke-width:0.75;stroke-linecap:butt;stroke-linejoin:miter;stroke-miterlimit:10;stroke-dasharray:none;stroke-opacity:1"
             id="path104"
             inkscape:connector-curvature="0" />
        </g>
        <g
           id="g106"
           transform="translate(227.1279,507.0778)">
          <path
             d="M 0,0 C 0,0 0.575,-2.135 5.545,-4.565 10.515,-6.996 8.763,-5.83 8.763,-5.83 8.763,-5.83 9.68,-3.285 0,0"
             style="fill:#ffffff;fill-opacity:1;fill-rule:nonzero;stroke:none"
             id="path108"
             inkscape:connector-curvature="0" />
        </g>
        <g
           id="g110"
           transform="translate(227.1279,507.0778)">
          <path
             d="M 0,0 C 0,0 0.575,-2.135 5.545,-4.565 10.515,-6.996 8.763,-5.83 8.763,-5.83 8.763,-5.83 9.68,-3.285 0,0 Z"
             style="fill:none;stroke:#337a6b;stroke-width:0.75;stroke-linecap:butt;stroke-linejoin:miter;stroke-miterlimit:10;stroke-dasharray:none;stroke-opacity:1"
             id="path112"
             inkscape:connector-curvature="0" />
        </g>
        <g
           id="g114"
           transform="translate(228.9946,518.3322)">
          <path
             d="M 0,0 23.667,-39.776 C 23.667,-39.776 2.066,-1.042 0,0"
             style="fill:#337a6b;fill-opacity:1;fill-rule:nonzero;stroke:none"
             id="path116"
             inkscape:connector-curvature="0" />
        </g>
        <g
           id="g118"
           transform="translate(228.9946,518.3322)">
          <path
             d="M 0,0 23.667,-39.776 C 23.667,-39.776 2.066,-1.042 0,0 Z"
             style="fill:none;stroke:#ffffff;stroke-width:0.5;stroke-linecap:butt;stroke-linejoin:miter;stroke-miterlimit:10;stroke-dasharray:none;stroke-opacity:1"
             id="path120"
             inkscape:connector-curvature="0" />
        </g>
      </g>
    </g>
  </g>
</svg>
