<svg id="Layer_1" data-name="Layer 1" xmlns="http://www.w3.org/2000/svg" viewBox="0 0 481.3 471.42"><defs><style>.cls-1,.cls-38,.cls-39{fill:#231f20;}.cls-1,.cls-19,.cls-29,.cls-35,.cls-37,.cls-38,.cls-39,.cls-41{stroke:#fff;}.cls-1,.cls-14,.cls-16,.cls-17,.cls-18,.cls-19,.cls-29,.cls-30,.cls-32,.cls-33,.cls-34,.cls-35,.cls-37,.cls-38,.cls-39,.cls-40,.cls-41{stroke-miterlimit:10;}.cls-1{stroke-width:0.86px;}.cls-2,.cls-20,.cls-36{font-size:67px;font-family:HelveticaNeue-MediumItalic, Helvetica Neue;font-weight:500;font-style:italic;}.cls-15,.cls-19,.cls-2{fill:#337a6b;}.cls-12,.cls-3{letter-spacing:-0.01em;}.cls-10,.cls-21,.cls-22,.cls-23,.cls-24,.cls-25,.cls-26,.cls-27,.cls-4,.cls-5,.cls-6,.cls-7,.cls-8,.cls-9{font-family:HelveticaNeue, Helvetica Neue;font-weight:400;}.cls-10,.cls-11,.cls-12,.cls-21,.cls-22,.cls-23,.cls-24,.cls-25,.cls-26,.cls-27,.cls-28,.cls-4,.cls-5,.cls-6,.cls-7,.cls-8,.cls-9{font-style:normal;}.cls-21,.cls-4{letter-spacing:0em;}.cls-10,.cls-11,.cls-4,.cls-5,.cls-6,.cls-7,.cls-8,.cls-9{fill:#000;}.cls-23,.cls-6{letter-spacing:0.01em;}.cls-24,.cls-7{letter-spacing:0.01em;}.cls-25,.cls-8{letter-spacing:0.01em;}.cls-26,.cls-9{letter-spacing:0.02em;}.cls-10,.cls-27{letter-spacing:0.02em;}.cls-11,.cls-28{font-family:HelveticaNeue-Bold, Helvetica Neue;font-weight:700;}.cls-12{font-family:HelveticaNeue-Light, Helvetica Neue;font-weight:300;}.cls-13{fill:#1e461f;}.cls-14,.cls-16,.cls-17,.cls-18,.cls-30,.cls-32,.cls-33,.cls-34,.cls-36,.cls-37,.cls-40{fill:#fff;}.cls-14{stroke:#1e461f;}.cls-14,.cls-30,.cls-41{stroke-width:1.14px;}.cls-16,.cls-17,.cls-18{stroke:#337a6b;}.cls-16,.cls-32{stroke-width:0.79px;}.cls-17,.cls-33{stroke-width:0.78px;}.cls-18,.cls-34,.cls-38{stroke-width:0.75px;}.cls-19,.cls-35,.cls-39{stroke-width:0.5px;}.cls-30{stroke:#000;}.cls-31{fill:#020202;}.cls-32,.cls-33,.cls-34{stroke:#020202;}.cls-35{fill:#636363;}.cls-40{stroke:#231f20;}</style></defs><rect class="cls-1" x="0.43" y="336.63" width="480.43" height="115.84"/><text class="cls-2" transform="translate(80.93 99.01) scale(0.94 1)"><tspan class="cls-3">R</tspan><tspan class="cls-4" x="46.5" y="0">e</tspan><tspan class="cls-5" x="82.34" y="0">su</tspan><tspan class="cls-6" x="153.09" y="0">r</tspan><tspan class="cls-7" x="176.21" y="0">r</tspan><tspan class="cls-8" x="198.92" y="0">e</tspan><tspan class="cls-9" x="235.9" y="0">c</tspan><tspan class="cls-10" x="273.16" y="0">t</tspan><tspan class="cls-11" x="295.67" y="0"> </tspan><tspan class="cls-12" x="314.29" y="0">bio</tspan></text><path class="cls-13" d="M245.39,135.08s6.19-4.24.82-15.58c-6.18-13-24.34,3.79-24.34,3.79-13.11,12.79-24,18.39-24.78,18.52.88,1.46,10.55,6.64,28,19.72,0,0,15.68,9,21.93-6s-1.48-15.17-1.48-15.17C242,137.26,245.39,135.08,245.39,135.08Z" transform="translate(-189.21 -71.4)"/><path class="cls-13" d="M228.47,137.77h0c-1.14.29-1,1-1,1.16a.68.68,0,0,0,.32.31h0l.09,0,.11,0v0a.93.93,0,0,0,.78-.22A1,1,0,0,0,228.47,137.77Z" transform="translate(-189.21 -71.4)"/><path class="cls-14" d="M240.63,133.09a3.42,3.42,0,0,0-6.76.36c.65,3.14,2.3.94,2.3.94.18-.26,1.17-.38,1.15.42,0,1.59-4.75,2.32-4.75,2.32a4.06,4.06,0,0,0-2.89,2.69s.19.2-.1.86l.71.8a5.21,5.21,0,0,0,6.34-.13A17.28,17.28,0,0,0,240,138a5.26,5.26,0,0,0,.61-4.89" transform="translate(-189.21 -71.4)"/><path class="cls-14" d="M241.54,147.09a3.36,3.36,0,0,0-3.84-5.47c-2.39,2.18.38,2.41.38,2.41.33,0,.94.79.24,1.19-1.4.8-4.5-2.76-4.5-2.76a9.48,9.48,0,0,0-4.14-2.83s.13,1.36-.94,1.51l.1,1.69a5,5,0,0,0,3.44,5.23,17.35,17.35,0,0,0,4.7,1.07,5.46,5.46,0,0,0,4.56-2" transform="translate(-189.21 -71.4)"/><path class="cls-14" d="M227.1,154.19c4.22,1.57,6.49-3.29,3.75-5.54-3-1.36-2.15,1.25-2.15,1.25.11.3-.39,1.15-1,.66-1.28-1,.93-5.12.93-5.12,1.21-3,.34-4.29.34-4.29s-.9-.07-1-.82l-1.57.71a5,5,0,0,0-3.67,5.08,16.45,16.45,0,0,0,.74,4.68,5.4,5.4,0,0,0,3.63,3.39" transform="translate(-189.21 -71.4)"/><path class="cls-14" d="M215,143.81a3.42,3.42,0,0,0,6.64,1.32c.17-3.2-2-1.48-2-1.48-.24.21-1.23.08-1-.69.45-1.53,5.19-1.08,5.19-1.08,3.27,0,4.18-1.31,4.18-1.31a.83.83,0,0,1,.41-1.19l-1.26-1.15A5.21,5.21,0,0,0,221,136.8a17.13,17.13,0,0,0-4.14,2.43,5.26,5.26,0,0,0-1.84,4.58" transform="translate(-189.21 -71.4)"/><path class="cls-14" d="M222.15,128.14c-4.36,1.17-3.27,6.41.29,6.64,3.22-.61,1-2.24,1-2.24-.26-.19-.37-1.16.44-1.13,1.62.05,2.32,4.67,2.32,4.67.9,3,1.79,3.77,1.79,3.77s.48-1.08,1.79,0l.83-1.48a5,5,0,0,0-.07-6.22,17.14,17.14,0,0,0-3.4-3.36,5.56,5.56,0,0,0-5-.65" transform="translate(-189.21 -71.4)"/><path class="cls-15" d="M252.26,116.93l-1.18,1s2.71,9.62-12.07,7.58c-14.34-2-13.45-20.22-13.45-20.22-.86-11.52,1.28-33.19.83-33.87.42.69,17.19,11.28,29.69,17.94,0,0,19.81,9.74,12.4,22.1-5.53,9.22-13,4.19-13,4.19l-2.46.68h0" transform="translate(-189.21 -71.4)"/><path class="cls-16" d="M253.42,113.83s7.4-9.81,6.68-20.6C260.1,93.23,253.32,98.35,253.42,113.83Z" transform="translate(-189.21 -71.4)"/><path class="cls-17" d="M226.84,106.47s12.81,1.22,21.56,8.58C248.4,115.05,240,116.39,226.84,106.47Z" transform="translate(-189.21 -71.4)"/><path class="cls-18" d="M248.51,102.56s2.29-9.4,1.93-15.1C250.44,87.46,242.65,99.36,248.51,102.56Z" transform="translate(-189.21 -71.4)"/><path class="cls-18" d="M242.27,105.55s-9.68-4-14.51-7.71C227.76,97.84,243,99.4,242.27,105.55Z" transform="translate(-189.21 -71.4)"/><path class="cls-18" d="M241,82.05s1.57,1.68.78,6.74-.78,3.09-.78,3.09S238.14,91,241,82.05Z" transform="translate(-189.21 -71.4)"/><path class="cls-18" d="M227.13,88.2s.57,2.13,5.54,4.56S235.89,94,235.89,94,236.81,91.48,227.13,88.2Z" transform="translate(-189.21 -71.4)"/><path class="cls-19" d="M229,76.94l23.67,39.78S231.06,78,229,76.94Z" transform="translate(-189.21 -71.4)"/><text class="cls-20" transform="translate(76.89 253.37) scale(0.94 1)"><tspan class="cls-3">R</tspan><tspan class="cls-21" x="46.5" y="0">e</tspan><tspan class="cls-22" x="82.34" y="0">su</tspan><tspan class="cls-23" x="153.09" y="0">r</tspan><tspan class="cls-24" x="176.21" y="0">r</tspan><tspan class="cls-25" x="198.92" y="0">e</tspan><tspan class="cls-26" x="235.9" y="0">c</tspan><tspan class="cls-27" x="273.16" y="0">t</tspan><tspan class="cls-28" x="295.67" y="0"> </tspan><tspan class="cls-12" x="314.29" y="0">bio</tspan></text><path class="cls-29" d="M241.36,289.43s6.19-4.23.81-15.57c-6.18-13-24.33,3.78-24.33,3.78-13.12,12.8-24,18.4-24.79,18.52.88,1.46,10.55,6.64,28,19.73,0,0,15.69,9,21.93-6s-1.48-15.17-1.48-15.17C238,291.62,241.36,289.43,241.36,289.43Z" transform="translate(-189.21 -71.4)"/><path class="cls-29" d="M224.43,292.13h0c-1.14.29-1,1-.95,1.16a.71.71,0,0,0,.31.31h0s.06,0,.1.05l.1,0v0a.93.93,0,0,0,.77-.22A1,1,0,0,0,224.43,292.13Z" transform="translate(-189.21 -71.4)"/><path class="cls-30" d="M236.6,287.45a3.43,3.43,0,0,0-6.77.35c.65,3.14,2.3.95,2.3.95.19-.26,1.17-.38,1.16.42,0,1.59-4.75,2.31-4.75,2.31a4.09,4.09,0,0,0-2.9,2.7s.2.2-.1.85l.71.81a5.2,5.2,0,0,0,6.34-.14,16.87,16.87,0,0,0,3.4-3.37,5.25,5.25,0,0,0,.61-4.88" transform="translate(-189.21 -71.4)"/><path class="cls-30" d="M237.51,301.44a3.37,3.37,0,0,0-3.85-5.47c-2.39,2.19.39,2.42.39,2.42.32,0,.94.78.24,1.18-1.41.8-4.5-2.75-4.5-2.75a9.51,9.51,0,0,0-4.15-2.84s.14,1.37-.93,1.51l.1,1.69a5,5,0,0,0,3.43,5.23,17.17,17.17,0,0,0,4.71,1.08,5.45,5.45,0,0,0,4.56-2.05" transform="translate(-189.21 -71.4)"/><path class="cls-30" d="M223.06,308.54c4.23,1.57,6.49-3.29,3.75-5.53-3-1.36-2.14,1.25-2.14,1.25.1.3-.39,1.14-1,.65-1.28-1,.94-5.11.94-5.11,1.21-3,.33-4.29.33-4.29s-.9-.07-1-.83l-1.56.72a5,5,0,0,0-3.68,5.07,16.37,16.37,0,0,0,.74,4.68,5.4,5.4,0,0,0,3.63,3.39" transform="translate(-189.21 -71.4)"/><path class="cls-30" d="M211,298.17a3.42,3.42,0,0,0,6.64,1.32c.18-3.21-2-1.48-2-1.48-.25.2-1.23.07-1-.69.44-1.54,5.19-1.08,5.19-1.08,3.27,0,4.17-1.31,4.17-1.31a.84.84,0,0,1,.42-1.2l-1.27-1.15a5.21,5.21,0,0,0-6.18-1.42,17.36,17.36,0,0,0-4.14,2.43,5.3,5.3,0,0,0-1.84,4.58" transform="translate(-189.21 -71.4)"/><path class="cls-30" d="M218.12,282.5c-4.36,1.17-3.28,6.4.29,6.64,3.21-.61,1-2.25,1-2.25-.26-.18-.37-1.15.44-1.13,1.63.06,2.32,4.68,2.32,4.68.9,3,1.79,3.77,1.79,3.77s.49-1.08,1.8,0l.83-1.48a4.94,4.94,0,0,0-.08-6.22,16.56,16.56,0,0,0-3.4-3.36,5.54,5.54,0,0,0-5-.65" transform="translate(-189.21 -71.4)"/><path class="cls-31" d="M248.22,271.28l-1.18,1s2.72,9.62-12.06,7.58c-14.35-2-13.46-20.22-13.46-20.22-.86-11.53,1.29-33.2.84-33.87.42.69,17.19,11.28,29.69,17.94,0,0,19.8,9.74,12.39,22.1-5.52,9.22-13,4.18-13,4.18l-2.46.69h0" transform="translate(-189.21 -71.4)"/><path class="cls-32" d="M249.39,268.18s7.4-9.81,6.67-20.59C256.06,247.59,249.29,252.71,249.39,268.18Z" transform="translate(-189.21 -71.4)"/><path class="cls-33" d="M222.81,260.83s12.8,1.21,21.56,8.58C244.37,269.41,235.94,270.75,222.81,260.83Z" transform="translate(-189.21 -71.4)"/><path class="cls-34" d="M244.47,256.92s2.29-9.4,1.93-15.1C246.4,241.82,238.62,253.72,244.47,256.92Z" transform="translate(-189.21 -71.4)"/><path class="cls-34" d="M238.23,259.9s-9.68-4-14.51-7.71C223.72,252.19,238.93,253.76,238.23,259.9Z" transform="translate(-189.21 -71.4)"/><path class="cls-34" d="M236.92,236.4s1.56,1.69.78,6.74-.78,3.09-.78,3.09S234.11,245.39,236.92,236.4Z" transform="translate(-189.21 -71.4)"/><path class="cls-34" d="M223.09,242.55s.58,2.14,5.55,4.57,3.22,1.26,3.22,1.26S232.77,245.84,223.09,242.55Z" transform="translate(-189.21 -71.4)"/><path class="cls-35" d="M225,231.3l23.67,39.78S227,232.34,225,231.3Z" transform="translate(-189.21 -71.4)"/><text class="cls-36" transform="translate(79.47 439.19) scale(0.94 1)"><tspan class="cls-3">R</tspan><tspan class="cls-21" x="46.5" y="0">e</tspan><tspan class="cls-22" x="82.34" y="0">su</tspan><tspan class="cls-23" x="153.09" y="0">r</tspan><tspan class="cls-24" x="176.21" y="0">r</tspan><tspan class="cls-25" x="198.92" y="0">e</tspan><tspan class="cls-26" x="235.9" y="0">c</tspan><tspan class="cls-27" x="273.16" y="0">t</tspan><tspan class="cls-28" x="295.67" y="0"> </tspan><tspan class="cls-12" x="314.29" y="0">bio</tspan></text><path class="cls-37" d="M243.94,475.25s6.18-4.23.81-15.57c-6.18-13-24.34,3.79-24.34,3.79-13.11,12.79-24,18.39-24.78,18.52.88,1.46,10.55,6.64,28,19.72,0,0,15.68,9,21.93-6s-1.48-15.17-1.48-15.17C240.54,477.44,243.94,475.25,243.94,475.25Z" transform="translate(-189.21 -71.4)"/><path class="cls-37" d="M227,478h0c-1.14.29-1,1-1,1.16a.68.68,0,0,0,.32.31h0l.09,0,.11,0v0a.91.91,0,0,0,.77-.22A1,1,0,0,0,227,478Z" transform="translate(-189.21 -71.4)"/><path class="cls-37" d="M239.18,473.27a3.43,3.43,0,0,0-6.77.35c.65,3.15,2.3.95,2.3.95.18-.26,1.17-.38,1.15.42,0,1.59-4.75,2.32-4.75,2.32a4.09,4.09,0,0,0-2.89,2.69s.2.2-.1.86l.71.8a5.2,5.2,0,0,0,6.34-.14,16.76,16.76,0,0,0,3.39-3.36,5.25,5.25,0,0,0,.62-4.89" transform="translate(-189.21 -71.4)"/><path class="cls-37" d="M240.09,487.27a3.37,3.37,0,0,0-3.85-5.47c-2.39,2.18.39,2.41.39,2.41.32,0,.94.79.23,1.19-1.4.8-4.49-2.76-4.49-2.76a9.62,9.62,0,0,0-4.15-2.84s.13,1.37-.93,1.52l.09,1.69a5,5,0,0,0,3.44,5.23,17.35,17.35,0,0,0,4.7,1.07,5.49,5.49,0,0,0,4.57-2" transform="translate(-189.21 -71.4)"/><path class="cls-37" d="M225.64,494.37c4.23,1.57,6.49-3.29,3.75-5.54-3-1.36-2.14,1.25-2.14,1.25.1.3-.4,1.15-1,.66-1.28-1,.94-5.12.94-5.12,1.2-3,.33-4.29.33-4.29s-.9-.07-1-.82l-1.57.71a5,5,0,0,0-3.67,5.08A16.35,16.35,0,0,0,222,491a5.43,5.43,0,0,0,3.63,3.4" transform="translate(-189.21 -71.4)"/><path class="cls-37" d="M213.58,484a3.42,3.42,0,0,0,6.64,1.32c.17-3.2-2-1.48-2-1.48-.25.21-1.24.08-1-.69.44-1.53,5.18-1.08,5.18-1.08,3.28,0,4.18-1.31,4.18-1.31a.83.83,0,0,1,.42-1.19l-1.27-1.15a5.21,5.21,0,0,0-6.18-1.43,17.36,17.36,0,0,0-4.14,2.43,5.26,5.26,0,0,0-1.84,4.58" transform="translate(-189.21 -71.4)"/><path class="cls-37" d="M220.69,468.32c-4.35,1.17-3.27,6.41.3,6.64,3.21-.61,1-2.25,1-2.25-.26-.18-.37-1.15.44-1.12,1.63.05,2.32,4.67,2.32,4.67.9,3,1.79,3.77,1.79,3.77s.49-1.08,1.79,0l.84-1.48a5,5,0,0,0-.08-6.22,17.14,17.14,0,0,0-3.4-3.36,5.56,5.56,0,0,0-5-.65" transform="translate(-189.21 -71.4)"/><path class="cls-37" d="M250.8,457.11l-1.18,1s2.72,9.62-12.06,7.58c-14.35-2-13.46-20.22-13.46-20.22-.86-11.52,1.28-33.2.83-33.87.43.69,17.19,11.28,29.7,17.94,0,0,19.8,9.74,12.39,22.1-5.53,9.22-13,4.19-13,4.19l-2.47.68h0" transform="translate(-189.21 -71.4)"/><path class="cls-38" d="M252,454s7.41-9.81,6.68-20.6C258.64,433.41,251.87,438.53,252,454Z" transform="translate(-189.21 -71.4)"/><path class="cls-38" d="M225.38,446.65s12.81,1.22,21.57,8.58C247,455.23,238.52,456.57,225.38,446.65Z" transform="translate(-189.21 -71.4)"/><path class="cls-38" d="M247.05,442.74s2.29-9.4,1.93-15.1C249,427.64,241.2,439.54,247.05,442.74Z" transform="translate(-189.21 -71.4)"/><path class="cls-38" d="M240.81,445.73s-9.68-4-14.51-7.71C226.3,438,241.51,439.58,240.81,445.73Z" transform="translate(-189.21 -71.4)"/><path class="cls-39" d="M239.5,422.23s1.56,1.68.78,6.74-.78,3.09-.78,3.09S236.68,431.21,239.5,422.23Z" transform="translate(-189.21 -71.4)"/><path class="cls-39" d="M225.67,428.38s.58,2.13,5.55,4.56,3.21,1.27,3.21,1.27S235.35,431.66,225.67,428.38Z" transform="translate(-189.21 -71.4)"/><path class="cls-40" d="M227.54,417.12,251.2,456.9S229.6,418.16,227.54,417.12Z" transform="translate(-189.21 -71.4)"/><path class="cls-41" d="M238.79,475.67A3.42,3.42,0,0,0,232,476c.65,3.14,2.3.94,2.3.94.18-.26,1.17-.37,1.15.42,0,1.6-4.74,2.32-4.74,2.32a4.09,4.09,0,0,0-2.9,2.69s.2.21-.1.86l.71.8a5.19,5.19,0,0,0,6.34-.13,16.87,16.87,0,0,0,3.4-3.37,5.24,5.24,0,0,0,.61-4.88" transform="translate(-189.21 -71.4)"/><path class="cls-41" d="M239.7,489.66a3.37,3.37,0,0,0-3.85-5.47c-2.39,2.19.39,2.41.39,2.41.32,0,.94.79.23,1.19-1.4.8-4.49-2.76-4.49-2.76a9.54,9.54,0,0,0-4.15-2.83s.14,1.36-.93,1.51l.1,1.69a5,5,0,0,0,3.43,5.23,17.35,17.35,0,0,0,4.7,1.07,5.49,5.49,0,0,0,4.57-2" transform="translate(-189.21 -71.4)"/><path class="cls-41" d="M225.25,496.76c4.23,1.57,6.49-3.29,3.75-5.54-3-1.36-2.14,1.25-2.14,1.25.1.3-.4,1.15-1,.66-1.28-1,.94-5.12.94-5.12,1.2-2.95.33-4.28.33-4.28s-.9-.08-1-.83l-1.56.72a5,5,0,0,0-3.68,5.07,16.37,16.37,0,0,0,.74,4.68,5.4,5.4,0,0,0,3.63,3.39" transform="translate(-189.21 -71.4)"/><path class="cls-41" d="M213.19,486.38a3.42,3.42,0,0,0,6.64,1.32c.17-3.2-2-1.48-2-1.48-.25.21-1.24.08-1-.69.44-1.53,5.19-1.08,5.19-1.08,3.27,0,4.17-1.31,4.17-1.31a.83.83,0,0,1,.42-1.19l-1.27-1.15a5.2,5.2,0,0,0-6.18-1.42,17,17,0,0,0-4.14,2.43,5.25,5.25,0,0,0-1.84,4.57" transform="translate(-189.21 -71.4)"/><path class="cls-41" d="M220.31,470.72c-4.36,1.16-3.28,6.4.29,6.63,3.21-.6,1-2.24,1-2.24-.26-.19-.37-1.16.44-1.13,1.63,0,2.32,4.68,2.32,4.68.9,3,1.79,3.76,1.79,3.76s.49-1.07,1.79,0l.84-1.48a5,5,0,0,0-.08-6.22,16.86,16.86,0,0,0-3.4-3.36,5.52,5.52,0,0,0-5-.64" transform="translate(-189.21 -71.4)"/></svg>