<?xml version="1.0" encoding="UTF-8" standalone="no"?>
<!-- Created with Inkscape (http://www.inkscape.org/) -->

<svg
   xmlns:dc="http://purl.org/dc/elements/1.1/"
   xmlns:cc="http://creativecommons.org/ns#"
   xmlns:rdf="http://www.w3.org/1999/02/22-rdf-syntax-ns#"
   xmlns:svg="http://www.w3.org/2000/svg"
   xmlns="http://www.w3.org/2000/svg"
   xmlns:sodipodi="http://sodipodi.sourceforge.net/DTD/sodipodi-0.dtd"
   xmlns:inkscape="http://www.inkscape.org/namespaces/inkscape"
   width="158.86804mm"
   height="35.39513mm"
   viewBox="0 0 158.86804 35.395131"
   version="1.1"
   id="svg442"
   inkscape:version="0.92.5 (2060ec1f9f, 2020-04-08)"
   sodipodi:docname="white.svg">
  <defs
     id="defs436">
    <clipPath
       clipPathUnits="userSpaceOnUse"
       id="clipPath32">
      <path
         d="M 0,595.276 H 841.89 V 0 H 0 Z"
         id="path30"
         inkscape:connector-curvature="0" />
    </clipPath>
    <clipPath
       clipPathUnits="userSpaceOnUse"
       id="clipPath140">
      <path
         d="M 0,595.276 H 841.89 V 0 H 0 Z"
         id="path138"
         inkscape:connector-curvature="0" />
    </clipPath>
    <clipPath
       clipPathUnits="userSpaceOnUse"
       id="clipPath256">
      <path
         d="M 0,595.276 H 841.89 V 0 H 0 Z"
         id="path254"
         inkscape:connector-curvature="0" />
    </clipPath>
  </defs>
  <sodipodi:namedview
     id="base"
     pagecolor="#000000"
     bordercolor="#666666"
     borderopacity="1.0"
     inkscape:pageopacity="0"
     inkscape:pageshadow="2"
     inkscape:zoom="0.98994949"
     inkscape:cx="315.79971"
     inkscape:cy="68.722433"
     inkscape:document-units="mm"
     inkscape:current-layer="g250"
     showgrid="false"
     fit-margin-top="0"
     fit-margin-left="0"
     fit-margin-right="0"
     fit-margin-bottom="0"
     inkscape:window-width="1680"
     inkscape:window-height="1013"
     inkscape:window-x="0"
     inkscape:window-y="30"
     inkscape:window-maximized="1" />
  <metadata
     id="metadata439">
    <rdf:RDF>
      <cc:Work
         rdf:about="">
        <dc:format>image/svg+xml</dc:format>
        <dc:type
           rdf:resource="http://purl.org/dc/dcmitype/StillImage" />
        <dc:title></dc:title>
      </cc:Work>
    </rdf:RDF>
  </metadata>
  <g
     inkscape:label="Layer 1"
     inkscape:groupmode="layer"
     id="layer1"
     transform="translate(-2.8016424,-3.8925769)">
    <text
       y="37.825062"
       x="29.703278"
       transform="scale(0.97161891,1.0292101)"
       style="font-style:italic;font-variant:normal;font-weight:500;font-stretch:normal;font-size:22.96529007px;font-family:'Helvetica 65 Medium';-inkscape-font-specification:HelveticaNeue-MediumItalic;writing-mode:lr-tb;fill:#ffffff;fill-opacity:1;fill-rule:nonzero;stroke:none;stroke-width:0.34276554"
       id="text240">
      <tspan
         style="stroke-width:0.34276554"
         x="29.703278"
         y="37.825062"
         id="tspan238">R</tspan>
    </text>
    <text
       y="37.825062"
       x="45.64119"
       transform="scale(0.97161891,1.0292101)"
       style="font-variant:normal;font-weight:normal;font-stretch:normal;font-size:22.96529007px;font-family:'Helvetica Neue LT Com';-inkscape-font-specification:HelveticaNeue;writing-mode:lr-tb;fill:#ffffff;fill-opacity:1;fill-rule:nonzero;stroke:none;stroke-width:0.34276554"
       id="text244">
      <tspan
         style="stroke-width:0.34276554"
         x="45.64119 57.92762 69.410263 82.178963 90.10199 97.887222 110.56407 123.33276"
         y="37.825062"
         sodipodi:role="line"
         id="tspan242">esurrect</tspan>
    </text>
    <text
       y="37.825062"
       x="137.43346"
       transform="scale(0.97161891,1.0292101)"
       style="font-variant:normal;font-weight:300;font-stretch:normal;font-size:22.96529007px;font-family:'Helvetica 45 Light';-inkscape-font-specification:HelveticaNeue-Light;writing-mode:lr-tb;fill:#ffffff;fill-opacity:1;fill-rule:nonzero;stroke:none;stroke-width:0.34276554"
       id="text248">
      <tspan
         style="stroke-width:0.34276554"
         x="137.43346 150.38589 154.40482"
         y="37.825062"
         sodipodi:role="line"
         id="tspan246">bio</tspan>
    </text>
    <g
       transform="matrix(0.35277777,0,0,-0.35277777,-65.924312,68.804429)"
       id="g250">
      <g
         id="g252"
         clip-path="url(#clipPath256)">
        <g
           id="g258"
           transform="translate(243.9355,120.0207)">
          <path
             d="M 0,0 C 0,0 6.188,4.232 0.812,15.577 -5.366,28.611 -23.522,11.789 -23.522,11.789 -36.638,-1.007 -47.496,-6.606 -48.307,-6.732 c 0.884,-1.458 10.553,-6.638 27.971,-19.724 0,0 15.684,-8.965 21.929,5.977 C 7.838,-5.537 0.115,-5.305 0.115,-5.305 -3.396,-2.184 0,0 0,0"
             style="fill:#ffffff;fill-opacity:1;fill-rule:nonzero;stroke:none"
             id="path260"
             inkscape:connector-curvature="0" />
        </g>
        <g
           id="g262"
           transform="translate(243.9355,120.0207)">
          <path
             d="M 0,0 C 0,0 6.188,4.232 0.812,15.577 -5.366,28.611 -23.522,11.789 -23.522,11.789 -36.638,-1.007 -47.496,-6.606 -48.307,-6.732 c 0.884,-1.458 10.553,-6.638 27.971,-19.724 0,0 15.684,-8.965 21.929,5.977 C 7.838,-5.537 0.115,-5.305 0.115,-5.305 -3.396,-2.184 0,0 0,0 Z"
             style="fill:none;stroke:#ffffff;stroke-width:1;stroke-linecap:butt;stroke-linejoin:miter;stroke-miterlimit:10;stroke-dasharray:none;stroke-opacity:1"
             id="path264"
             inkscape:connector-curvature="0" />
        </g>
        <g
           id="g266"
           transform="translate(227.0122,117.3273)">
          <path
             d="m 0,0 c 0,0 -0.004,0.001 -0.004,0.001 0,0 -0.005,0.007 -0.006,0.007 -0.004,0.004 -0.007,0.006 -0.011,0.01 -1.14,-0.292 -1.016,-0.976 -0.957,-1.159 0.073,-0.157 0.2,-0.255 0.314,-0.31 l 0.001,0.003 c 0.031,-0.022 0.062,-0.03 0.094,-0.045 0.063,-0.023 0.109,-0.031 0.109,-0.031 0,0 0.002,-0.015 0.003,-0.019 0.318,-0.084 0.62,0.102 0.775,0.223 C 0.683,-0.713 0.237,-0.208 0,0"
             style="fill:#ffffff;fill-opacity:1;fill-rule:nonzero;stroke:none"
             id="path268"
             inkscape:connector-curvature="0" />
        </g>
        <g
           id="g270"
           transform="translate(227.0122,117.3273)">
          <path
             d="m 0,0 c 0,0 -0.004,0.001 -0.004,0.001 0,0 -0.005,0.007 -0.006,0.007 -0.004,0.004 -0.007,0.006 -0.011,0.01 -1.14,-0.292 -1.016,-0.976 -0.957,-1.159 0.073,-0.157 0.2,-0.255 0.314,-0.31 l 0.001,0.003 c 0.031,-0.022 0.062,-0.03 0.094,-0.045 0.063,-0.023 0.109,-0.031 0.109,-0.031 0,0 0.002,-0.015 0.003,-0.019 0.318,-0.084 0.62,0.102 0.775,0.223 C 0.683,-0.713 0.237,-0.208 0,0 Z"
             style="fill:none;stroke:#ffffff;stroke-width:1;stroke-linecap:butt;stroke-linejoin:miter;stroke-miterlimit:10;stroke-dasharray:none;stroke-opacity:1"
             id="path272"
             inkscape:connector-curvature="0" />
        </g>
        <g
           id="g274"
           transform="translate(239.1753,122.0012)">
          <path
             d="m 0,0 c -1.234,4.26 -6.564,3.146 -6.768,-0.351 0.652,-3.142 2.301,-0.943 2.301,-0.943 0.185,0.259 1.174,0.376 1.154,-0.421 -0.038,-1.594 -4.748,-2.316 -4.748,-2.316 -2.529,-0.87 -2.895,-2.693 -2.895,-2.693 0,0 0.197,-0.205 -0.1,-0.858 l 0.709,-0.803 c 3.628,-2.334 6.344,0.135 6.344,0.135 1.744,1.16 3.391,3.369 3.391,3.369 C 1.092,-2.467 0,0 0,0"
             style="fill:#ffffff;fill-opacity:1;fill-rule:nonzero;stroke:#ffffff;stroke-width:1;stroke-linecap:butt;stroke-linejoin:miter;stroke-miterlimit:10;stroke-dasharray:none;stroke-opacity:1"
             id="path276"
             inkscape:connector-curvature="0" />
        </g>
        <g
           id="g278"
           transform="translate(240.0869,108.008)">
          <path
             d="m 0,0 c 3.059,3.26 -0.698,7.13 -3.844,5.472 -2.392,-2.189 0.383,-2.416 0.383,-2.416 0.321,-0.019 0.94,-0.785 0.237,-1.185 -1.405,-0.802 -4.497,2.755 -4.497,2.755 -1.778,2.136 -4.148,2.837 -4.148,2.837 0,0 0.136,-1.367 -0.931,-1.512 l 0.098,-1.691 c -0.132,-4.252 3.434,-5.23 3.434,-5.23 1.922,-0.85 4.704,-1.072 4.704,-1.072 C -1.574,-2.202 0,0 0,0"
             style="fill:#ffffff;fill-opacity:1;fill-rule:nonzero;stroke:#ffffff;stroke-width:1;stroke-linecap:butt;stroke-linejoin:miter;stroke-miterlimit:10;stroke-dasharray:none;stroke-opacity:1"
             id="path280"
             inkscape:connector-curvature="0" />
        </g>
        <g
           id="g282"
           transform="translate(225.6416,100.9094)">
          <path
             d="M 0,0 C 4.225,-1.569 6.491,3.29 3.748,5.534 0.786,6.896 1.604,4.286 1.604,4.286 1.706,3.987 1.211,3.139 0.57,3.629 c -1.281,0.98 0.934,5.118 0.934,5.118 1.207,2.956 0.332,4.285 0.332,4.285 0,0 -0.9,0.073 -0.969,0.828 L -0.698,13.142 C -4.772,11.678 -4.37,8.069 -4.37,8.069 -4.459,6.004 -3.633,3.392 -3.633,3.392 -2.671,0.611 0,0 0,0"
             style="fill:#ffffff;fill-opacity:1;fill-rule:nonzero;stroke:#ffffff;stroke-width:1;stroke-linecap:butt;stroke-linejoin:miter;stroke-miterlimit:10;stroke-dasharray:none;stroke-opacity:1"
             id="path284"
             inkscape:connector-curvature="0" />
        </g>
        <g
           id="g286"
           transform="translate(213.5806,111.2863)">
          <path
             d="M 0,0 C 0.108,-4.427 5.553,-4.655 6.642,-1.319 6.812,1.883 4.655,0.157 4.655,0.157 4.41,-0.048 3.422,0.082 3.645,0.849 c 0.444,1.533 5.188,1.078 5.188,1.078 3.272,0.011 4.175,1.312 4.175,1.312 0,0 -0.437,0.824 0.418,1.193 l -1.268,1.15 C 9.24,8.73 5.981,7.007 5.981,7.007 3.996,6.311 1.837,4.576 1.837,4.576 -0.428,2.656 0,0 0,0"
             style="fill:#ffffff;fill-opacity:1;fill-rule:nonzero;stroke:#ffffff;stroke-width:1;stroke-linecap:butt;stroke-linejoin:miter;stroke-miterlimit:10;stroke-dasharray:none;stroke-opacity:1"
             id="path288"
             inkscape:connector-curvature="0" />
        </g>
        <g
           id="g290"
           transform="translate(220.6948,126.9523)">
          <path
             d="m 0,0 c -4.358,-1.168 -3.274,-6.404 0.291,-6.638 3.212,0.609 0.985,2.246 0.985,2.246 -0.262,0.184 -0.372,1.155 0.441,1.128 1.625,-0.053 2.316,-4.677 2.316,-4.677 0.904,-2.989 1.791,-3.768 1.791,-3.768 0,0 0.488,1.08 1.794,0 l 0.834,1.484 C 10.868,-6.691 8.377,-4.006 8.377,-4.006 7.209,-2.284 4.973,-0.647 4.973,-0.647 2.527,1.045 0,0 0,0"
             style="fill:#ffffff;fill-opacity:1;fill-rule:nonzero;stroke:#ffffff;stroke-width:1;stroke-linecap:butt;stroke-linejoin:miter;stroke-miterlimit:10;stroke-dasharray:none;stroke-opacity:1"
             id="path292"
             inkscape:connector-curvature="0" />
        </g>
        <g
           id="g294"
           transform="translate(250.8003,138.1701)">
          <path
             d="m 0,0 -1.179,-0.985 c 0,0 2.714,-9.619 -12.065,-7.578 -14.347,1.98 -13.454,20.214 -13.454,20.214 -0.864,11.527 1.281,33.2 0.832,33.873 0.422,-0.687 17.19,-11.283 29.692,-17.942 0,0 19.803,-9.737 12.395,-22.098 C 10.693,-3.737 3.195,1.298 3.195,1.298 L 0.732,0.611"
             style="fill:#ffffff;fill-opacity:1;fill-rule:nonzero;stroke:#ffffff;stroke-width:1;stroke-linecap:butt;stroke-linejoin:miter;stroke-miterlimit:10;stroke-dasharray:none;stroke-opacity:1"
             id="path296"
             inkscape:connector-curvature="0" />
        </g>
        <g
           id="g298"
           transform="translate(251.9639,141.2687)">
          <path
             d="M 0,0 C 0,0 7.403,9.812 6.674,20.595 6.674,20.595 -0.098,15.476 0,0"
             style="fill:#231f20;fill-opacity:1;fill-rule:nonzero;stroke:none"
             id="path300"
             inkscape:connector-curvature="0" />
        </g>
        <g
           id="g302"
           transform="translate(251.9639,141.2687)">
          <path
             d="M 0,0 C 0,0 7.403,9.812 6.674,20.595 6.674,20.595 -0.098,15.476 0,0 Z"
             style="fill:none;stroke:#ffffff;stroke-width:0.75;stroke-linecap:butt;stroke-linejoin:miter;stroke-miterlimit:10;stroke-dasharray:none;stroke-opacity:1"
             id="path304"
             inkscape:connector-curvature="0" />
        </g>
        <g
           id="g306"
           transform="translate(225.3843,148.6262)">
          <path
             d="M 0,0 C 0,0 12.804,-1.217 21.561,-8.581 21.561,-8.581 13.136,-9.924 0,0"
             style="fill:#231f20;fill-opacity:1;fill-rule:nonzero;stroke:none"
             id="path308"
             inkscape:connector-curvature="0" />
        </g>
        <g
           id="g310"
           transform="translate(225.3843,148.6262)">
          <path
             d="M 0,0 C 0,0 12.804,-1.217 21.561,-8.581 21.561,-8.581 13.136,-9.924 0,0 Z"
             style="fill:none;stroke:#ffffff;stroke-width:0.75;stroke-linecap:butt;stroke-linejoin:miter;stroke-miterlimit:10;stroke-dasharray:none;stroke-opacity:1"
             id="path312"
             inkscape:connector-curvature="0" />
        </g>
        <g
           id="g314"
           transform="translate(247.0522,152.5363)">
          <path
             d="M 0,0 C 0,0 2.285,9.397 1.93,15.101 1.93,15.101 -5.856,3.2 0,0"
             style="fill:#231f20;fill-opacity:1;fill-rule:nonzero;stroke:none"
             id="path316"
             inkscape:connector-curvature="0" />
        </g>
        <g
           id="g318"
           transform="translate(247.0522,152.5363)">
          <path
             d="M 0,0 C 0,0 2.285,9.397 1.93,15.101 1.93,15.101 -5.856,3.2 0,0 Z"
             style="fill:none;stroke:#ffffff;stroke-width:0.75;stroke-linecap:butt;stroke-linejoin:miter;stroke-miterlimit:10;stroke-dasharray:none;stroke-opacity:1"
             id="path320"
             inkscape:connector-curvature="0" />
        </g>
        <g
           id="g322"
           transform="translate(240.8096,149.548)">
          <path
             d="M 0,0 C 0,0 -9.682,4.019 -14.507,7.711 -14.507,7.711 0.702,6.148 0,0"
             style="fill:#231f20;fill-opacity:1;fill-rule:nonzero;stroke:none"
             id="path324"
             inkscape:connector-curvature="0" />
        </g>
        <g
           id="g326"
           transform="translate(240.8096,149.548)">
          <path
             d="M 0,0 C 0,0 -9.682,4.019 -14.507,7.711 -14.507,7.711 0.702,6.148 0,0 Z"
             style="fill:none;stroke:#ffffff;stroke-width:0.75;stroke-linecap:butt;stroke-linejoin:miter;stroke-miterlimit:10;stroke-dasharray:none;stroke-opacity:1"
             id="path328"
             inkscape:connector-curvature="0" />
        </g>
        <g
           id="g330"
           transform="translate(239.4956,173.048)">
          <path
             d="M 0,0 C 0,0 1.562,-1.685 0.781,-6.739 0,-11.794 0,-9.828 0,-9.828 c 0,0 -2.813,0.843 0,9.828"
             style="fill:#231f20;fill-opacity:1;fill-rule:nonzero;stroke:none"
             id="path332"
             inkscape:connector-curvature="0" />
        </g>
        <g
           id="g334"
           transform="translate(239.4956,173.048)">
          <path
             d="M 0,0 C 0,0 1.562,-1.685 0.781,-6.739 0,-11.794 0,-9.828 0,-9.828 c 0,0 -2.813,0.843 0,9.828 z"
             style="fill:none;stroke:#ffffff;stroke-width:0.5;stroke-linecap:butt;stroke-linejoin:miter;stroke-miterlimit:10;stroke-dasharray:none;stroke-opacity:1"
             id="path336"
             inkscape:connector-curvature="0" />
        </g>
        <g
           id="g338"
           transform="translate(225.6699,166.8986)">
          <path
             d="M 0,0 C 0,0 0.575,-2.136 5.545,-4.565 10.515,-6.996 8.763,-5.83 8.763,-5.83 8.763,-5.83 9.68,-3.285 0,0"
             style="fill:#231f20;fill-opacity:1;fill-rule:nonzero;stroke:none"
             id="path340"
             inkscape:connector-curvature="0" />
        </g>
        <g
           id="g342"
           transform="translate(225.6699,166.8986)">
          <path
             d="M 0,0 C 0,0 0.575,-2.136 5.545,-4.565 10.515,-6.996 8.763,-5.83 8.763,-5.83 8.763,-5.83 9.68,-3.285 0,0 Z"
             style="fill:none;stroke:#ffffff;stroke-width:0.5;stroke-linecap:butt;stroke-linejoin:miter;stroke-miterlimit:10;stroke-dasharray:none;stroke-opacity:1"
             id="path344"
             inkscape:connector-curvature="0" />
        </g>
        <g
           id="g346"
           transform="translate(227.5366,178.1525)">
          <path
             d="M 0,0 23.667,-39.776 C 23.667,-39.776 2.066,-1.042 0,0"
             style="fill:#ffffff;fill-opacity:1;fill-rule:nonzero;stroke:none"
             id="path348"
             inkscape:connector-curvature="0" />
        </g>
        <g
           id="g350"
           transform="translate(227.5366,178.1525)">
          <path
             d="M 0,0 23.667,-39.776 C 23.667,-39.776 2.066,-1.042 0,0 Z"
             style="fill:none;stroke:#231f20;stroke-width:1;stroke-linecap:butt;stroke-linejoin:miter;stroke-miterlimit:10;stroke-dasharray:none;stroke-opacity:1"
             id="path352"
             inkscape:connector-curvature="0" />
        </g>
        <g
           id="g354"
           transform="translate(238.7871,119.6086)">
          <path
             d="m 0,0 c -1.234,4.26 -6.564,3.146 -6.768,-0.351 0.652,-3.142 2.301,-0.943 2.301,-0.943 0.185,0.259 1.174,0.375 1.154,-0.422 -0.038,-1.593 -4.748,-2.315 -4.748,-2.315 -2.529,-0.87 -2.895,-2.693 -2.895,-2.693 0,0 0.197,-0.205 -0.1,-0.859 l 0.709,-0.802 c 3.628,-2.334 6.344,0.134 6.344,0.134 1.744,1.161 3.391,3.369 3.391,3.369 C 1.092,-2.467 0,0 0,0"
             style="fill:#000000;fill-opacity:1;fill-rule:nonzero;stroke:#ffffff;stroke-width:1.13999999;stroke-linecap:butt;stroke-linejoin:miter;stroke-miterlimit:10;stroke-dasharray:none;stroke-opacity:1"
             id="path356"
             inkscape:connector-curvature="0" />
        </g>
        <g
           id="g358"
           transform="translate(239.6987,105.6154)">
          <path
             d="m 0,0 c 3.059,3.259 -0.698,7.13 -3.844,5.471 -2.392,-2.188 0.383,-2.415 0.383,-2.415 0.321,-0.02 0.94,-0.785 0.237,-1.186 -1.405,-0.801 -4.497,2.756 -4.497,2.756 -1.778,2.136 -4.148,2.837 -4.148,2.837 0,0 0.136,-1.368 -0.931,-1.513 l 0.098,-1.69 c -0.132,-4.252 3.434,-5.23 3.434,-5.23 1.922,-0.85 4.704,-1.072 4.704,-1.072 C -1.574,-2.202 0,0 0,0"
             style="fill:#000000;fill-opacity:1;fill-rule:nonzero;stroke:#ffffff;stroke-width:1.13999999;stroke-linecap:butt;stroke-linejoin:miter;stroke-miterlimit:10;stroke-dasharray:none;stroke-opacity:1"
             id="path360"
             inkscape:connector-curvature="0" />
        </g>
        <g
           id="g362"
           transform="translate(225.2534,98.5158)">
          <path
             d="M 0,0 C 4.225,-1.568 6.491,3.29 3.748,5.535 0.786,6.896 1.604,4.287 1.604,4.287 1.706,3.987 1.211,3.14 0.57,3.63 c -1.281,0.98 0.934,5.117 0.934,5.117 1.207,2.957 0.332,4.286 0.332,4.286 0,0 -0.9,0.073 -0.969,0.828 L -0.698,13.143 C -4.772,11.679 -4.37,8.07 -4.37,8.07 -4.459,6.005 -3.633,3.392 -3.633,3.392 -2.671,0.612 0,0 0,0"
             style="fill:#000000;fill-opacity:1;fill-rule:nonzero;stroke:#ffffff;stroke-width:1.13999999;stroke-linecap:butt;stroke-linejoin:miter;stroke-miterlimit:10;stroke-dasharray:none;stroke-opacity:1"
             id="path364"
             inkscape:connector-curvature="0" />
        </g>
        <g
           id="g366"
           transform="translate(213.1924,108.8937)">
          <path
             d="M 0,0 C 0.108,-4.428 5.553,-4.656 6.642,-1.32 6.812,1.882 4.655,0.157 4.655,0.157 4.41,-0.048 3.422,0.082 3.645,0.849 c 0.443,1.533 5.188,1.078 5.188,1.078 3.272,0.011 4.175,1.312 4.175,1.312 0,0 -0.437,0.824 0.418,1.193 L 12.158,5.581 C 9.24,8.73 5.981,7.007 5.981,7.007 3.996,6.311 1.837,4.576 1.837,4.576 -0.428,2.656 0,0 0,0"
             style="fill:#000000;fill-opacity:1;fill-rule:nonzero;stroke:#ffffff;stroke-width:1.13999999;stroke-linecap:butt;stroke-linejoin:miter;stroke-miterlimit:10;stroke-dasharray:none;stroke-opacity:1"
             id="path368"
             inkscape:connector-curvature="0" />
        </g>
        <g
           id="g370"
           transform="translate(220.3066,124.5588)">
          <path
             d="m 0,0 c -4.358,-1.168 -3.274,-6.403 0.291,-6.637 3.212,0.608 0.985,2.246 0.985,2.246 -0.262,0.183 -0.372,1.155 0.441,1.127 1.625,-0.053 2.316,-4.676 2.316,-4.676 0.904,-2.989 1.791,-3.768 1.791,-3.768 0,0 0.488,1.08 1.794,0 l 0.834,1.483 c 2.416,3.535 -0.075,6.22 -0.075,6.22 C 7.209,-2.283 4.973,-0.647 4.973,-0.647 2.527,1.046 0,0 0,0"
             style="fill:#000000;fill-opacity:1;fill-rule:nonzero;stroke:#ffffff;stroke-width:1.13999999;stroke-linecap:butt;stroke-linejoin:miter;stroke-miterlimit:10;stroke-dasharray:none;stroke-opacity:1"
             id="path372"
             inkscape:connector-curvature="0" />
        </g>
      </g>
    </g>
  </g>
</svg>
